<?xml version="1.0" encoding="UTF-8" standalone="no"?>
<!-- Created with Inkscape (http://www.inkscape.org/) -->

<svg
   version="1.1"
   id="svg1"
   width="695"
   height="695"
   viewBox="0 0 695 695"
   sodipodi:docname="livelist-icon.svg"
   inkscape:version="1.4 (86a8ad7, 2024-10-11)"
   inkscape:export-filename="livelist-icon.png"
   inkscape:export-xdpi="96"
   inkscape:export-ydpi="96"
   xmlns:inkscape="http://www.inkscape.org/namespaces/inkscape"
   xmlns:sodipodi="http://sodipodi.sourceforge.net/DTD/sodipodi-0.dtd"
   xmlns="http://www.w3.org/2000/svg"
   xmlns:svg="http://www.w3.org/2000/svg">
  <defs
     id="defs1" />
  <sodipodi:namedview
     id="namedview1"
     pagecolor="#ffffff"
     bordercolor="#000000"
     borderopacity="0.25"
     inkscape:showpageshadow="2"
     inkscape:pageopacity="0.0"
     inkscape:pagecheckerboard="0"
     inkscape:deskcolor="#d1d1d1"
     inkscape:zoom="1.1873289"
     inkscape:cx="355.84074"
     inkscape:cy="280.04035"
     inkscape:window-width="1927"
     inkscape:window-height="1211"
     inkscape:window-x="1034"
     inkscape:window-y="92"
     inkscape:window-maximized="0"
     inkscape:current-layer="g9" />
  <g
     id="g9"
     inkscape:label="枠">
    <g
       id="g1"
       inkscape:label="外側bk"
       style="display:none">
      <rect
         style="display:inline;fill:#3e7744;fill-opacity:1;stroke:#000000;stroke-width:0.898043;stroke-linejoin:round;stroke-dasharray:0, 9.8785;stroke-dashoffset:0"
         id="rect12"
         width="595"
         height="545"
         x="50"
         y="100"
         ry="99.382736"
         inkscape:label="外側" />
      <rect
         style="display:inline;fill:#ffffff;fill-opacity:1;stroke:#000000;stroke-width:1.26551;stroke-linejoin:round;stroke-dasharray:0, 13.9205;stroke-dashoffset:0"
         id="rect5"
         width="84.850998"
         height="109.276"
         x="143.285"
         y="44.744999"
         ry="22.679926"
         inkscape:label="左耳背景"
         transform="translate(-3.2850037)" />
      <rect
         style="display:inline;fill:#ffffff;fill-opacity:1;stroke:#000000;stroke-width:1.26551;stroke-linejoin:round;stroke-dasharray:0, 13.9205;stroke-dashoffset:0"
         id="rect6"
         width="84.850998"
         height="109.276"
         x="479.3334"
         y="44.744999"
         ry="22.679926"
         inkscape:label="右耳背景"
         transform="translate(-9.1844045)" />
    </g>
    <path
       id="rect1"
       style="display:inline;fill:#3e7744;fill-opacity:1;stroke:#000000;stroke-width:0.898043;stroke-linejoin:round;stroke-dasharray:0, 9.8785;stroke-dashoffset:0"
       inkscape:label="外側"
       d="m 224.85156,100 v 31.3418 c 0,12.56468 -10.11502,22.67968 -22.67968,22.67968 H 162.67969 C 150.11501,154.02148 140,143.90648 140,131.3418 v -30.8711 c -50.620123,4.70347 -90,47.02278 -90,98.91211 V 545.61719 C 50,600.67522 94.32478,645 149.38281,645 H 545.61719 C 600.67522,645 645,600.67522 645,545.61719 V 199.38281 c 0,-51.88932 -39.37987,-94.20863 -90,-98.91211 v 30.8711 c 0,12.56468 -10.11501,22.67968 -22.67969,22.67968 h -39.49219 c -12.56467,0 -22.67968,-10.115 -22.67968,-22.67968 V 100 Z" />
    <rect
       style="display:inline;fill:#ffffff;fill-opacity:1;stroke:#000000;stroke-width:0.670331;stroke-linejoin:round;stroke-dasharray:0, 7.37366;stroke-dashoffset:0"
       id="rect9"
       width="495"
       height="365"
       x="100"
       y="230"
       ry="72.90284"
       inkscape:label="内側(下)" />
    <rect
       style="display:inline;fill:#ffffff;fill-opacity:1;stroke:#000000;stroke-width:0.55477;stroke-linejoin:round;stroke-dasharray:0, 6.10249;stroke-dashoffset:0"
       id="rect8"
       width="495"
       height="250"
       x="100"
       y="210"
       ry="11.791173"
       inkscape:label="内側(上)" />
  </g>
  <g
     id="g10"
     inkscape:label="マイク"
     transform="matrix(0.86341908,0,0,0.86341908,46.904336,44.774669)">
    <path
       style="display:inline;fill:#3e7744;fill-opacity:1"
       d="m 324.79099,380.04874 c 17.65821,-17.27985 33.09796,-32.75983 34.31054,-34.39994 4.48701,-6.069 4.98225,-32.30193 0.909,-48.1488 -6.31519,-24.56902 -23.87844,-45.68468 -47.3571,-56.93571 -18.40804,-8.97041 -45.9677,-11.51716 -65.65343,-5.14169 -33.15116,10.9687 -55.36637,35.44711 -62.22786,68.56737 -3.58009,17.281 -1.35061,38.40844 5.74653,54.45633 11.33943,25.64047 37.23187,46.79451 62.98133,51.45553 9.997,1.8096 11.50284,1.91169 25.59257,1.73515 l 13.59258,-0.17032 z"
       id="path9"
       inkscape:label="ヘッド"
       sodipodi:nodetypes="ssssssssscs" />
    <path
       style="display:inline;fill:#3e7744;fill-opacity:1"
       d="m 476.47956,592.03093 c 10.64981,-5.30033 21.30959,-15.03937 24.59797,-22.47329 3.98582,-9.0106 3.46876,-21.66376 -1.2869,-31.4923 -1.21494,-2.51094 -5.93986,-8.43629 -10.49981,-13.16745 C 484.73087,520.16673 481,515.96078 481,515.55134 c 0,-0.40944 1.7709,-2.75629 3.93533,-5.21521 5.47298,-6.21763 5.98482,-9.37268 2.41102,-14.86193 -1.56549,-2.40456 -12.09633,-15.08243 -23.40186,-28.17306 C 452.63896,454.21051 434.66123,433.15 423.99399,420.5 385.71291,375.1035 370.85057,358 369.68369,358 367.72314,358 306,419.5641 306,421.5196 c 0,0.9837 1.90814,3.40671 4.24031,5.38447 2.33216,1.97776 12.11966,10.59031 21.75,19.139 53.26753,47.28472 74.23524,65.93943 89.83455,79.92468 9.52868,8.54274 18.30368,16.0788 19.5,16.74681 5.47683,3.05818 13.01043,0.46784 18.11918,-6.23008 1.46176,-1.91647 3.26814,-3.48448 4.01418,-3.48448 2.05141,0 10.58309,9.9146 12.78961,14.86269 3.64717,8.17878 -0.53595,18.69284 -9.19459,23.11015 -3.88098,1.97993 -5.62958,2.02716 -75.04552,2.02716 -76.03701,0 -75.02234,-0.0634 -79.50772,4.96697 -1.46528,1.64332 -2,3.65734 -2,7.53303 0,5.55823 1.86587,8.84548 6,10.57067 1.1,0.45903 35.525,0.74342 76.5,0.63197 L 467.5,596.5 Z"
       id="path3"
       inkscape:label="持ち手" />
  </g>
  <rect
     style="fill:#3e7744;fill-opacity:1;stroke:#000000;stroke-linejoin:round;stroke-dasharray:0, 11;stroke-dashoffset:0"
     id="rect4"
     width="64.851456"
     height="89.276016"
     x="153.28523"
     y="54.744728"
     ry="18.528986"
     inkscape:label="左耳"
     transform="translate(-3.2850037)" />
  <rect
     style="fill:#3e7744;fill-opacity:1;stroke:#000000;stroke-linejoin:round;stroke-dasharray:0, 11;stroke-dashoffset:0"
     id="rect7"
     width="64.851456"
     height="89.276016"
     x="489.33365"
     y="54.744728"
     ry="18.528986"
     inkscape:label="右耳"
     transform="translate(-9.1844045)" />
</svg>
