<?xml version="1.0" encoding="UTF-8" standalone="no"?>
<!-- Created with Inkscape (http://www.inkscape.org/) -->

<svg
   version="1.1"
   id="svg1"
   width="695"
   height="695"
   viewBox="0 0 695 695"
   sodipodi:docname="livelist-icon.svg"
   inkscape:version="1.4 (86a8ad7, 2024-10-11)"
   inkscape:export-filename="livelist-icon.png"
   inkscape:export-xdpi="96"
   inkscape:export-ydpi="96"
   xmlns:inkscape="http://www.inkscape.org/namespaces/inkscape"
   xmlns:sodipodi="http://sodipodi.sourceforge.net/DTD/sodipodi-0.dtd"
   xmlns="http://www.w3.org/2000/svg"
   xmlns:svg="http://www.w3.org/2000/svg">
  <defs
     id="defs1" />
  <sodipodi:namedview
     id="namedview1"
     pagecolor="#ffffff"
     bordercolor="#000000"
     borderopacity="0.25"
     inkscape:showpageshadow="2"
     inkscape:pageopacity="0.0"
     inkscape:pagecheckerboard="0"
     inkscape:deskcolor="#d1d1d1"
     inkscape:zoom="1.6791367"
     inkscape:cx="347.20223"
     inkscape:cy="304.62082"
     inkscape:window-width="1927"
     inkscape:window-height="1211"
     inkscape:window-x="1312"
     inkscape:window-y="81"
     inkscape:window-maximized="0"
     inkscape:current-layer="svg1" />
  <path
     style="display:inline;fill:#000000"
     d="m 528.32881,114.63597 c 4.2575,-1.77889 8.34768,-6.72081 9.69081,-11.70885 0.69847,-2.5939 0.96907,-16.782788 0.7763,-40.704528 C 538.45811,20.302057 538.5062,20.553812 530.01523,16.25 525.99537,14.212453 524.15267,14 510.5,14 c -13.65886,0 -15.49158,0.21153 -19.49436,2.25 -3.13927,1.59872 -5.08208,3.525723 -6.71189,6.657284 C 482.02063,27.274938 482,27.65343 482,65 c 0,37.40957 0.0169,37.71731 2.30274,42.03998 1.57392,2.97633 3.68095,5.08336 6.65728,6.65728 3.98115,2.10528 5.63004,2.30274 19.22938,2.30274 10.30082,0 15.87869,-0.41944 18.13941,-1.36403 z"
     id="path4578"
     inkscape:label="右耳" />
  <path
     style="display:inline;fill:#000000"
     d="m 201.40598,113.73355 c 2.14829,-1.22845 4.84829,-3.50405 6,-5.05688 C 209.4511,105.91928 209.5,104.89923 209.5,65 c 0,-39.659601 -0.0601,-40.935837 -2.05854,-43.67667 -1.1322,-1.552831 -4.0572,-3.855567 -6.5,-5.11719 -4.17855,-2.158076 -5.39926,-2.276466 -20.62189,-2 -17.94386,0.325887 -19.29241,0.764064 -24.10162,7.831244 l -2.28204,3.353488 0.28204,40.232495 c 0.2737,39.041743 0.34403,40.316013 2.37607,43.054563 1.15171,1.55214 3.85171,3.82717 6,5.05562 3.58033,2.04733 5.19825,2.23355 19.40598,2.23355 14.20773,0 15.82565,-0.18622 19.40598,-2.23355 z"
     id="path4577"
     inkscape:label="左耳" />
  <path
     id="path4574"
     style="display:inline;fill:#000000"
     inkscape:label="枠"
     d="M 83.250674,643.45486 C 70.794649,640.10074 60.206424,631.24324 54.252564,619.1967 L 50.5,611.60408 50.240186,414.30204 49.980372,217 H 346.00241 642.02444 l -0.26222,197.27124 -0.26222,197.27125 -3.39138,6.88865 c -6.12267,12.43651 -18.54519,22.58621 -31.2204,25.50832 -2.90093,0.66877 -91.49273,0.99763 -261.38822,0.97028 -218.22004,-0.0351 -257.792096,-0.25466 -262.249326,-1.45488 z M 616.5,666.77559 c 11.64131,-3.96447 19.93277,-9.18674 29.12737,-18.34551 6.86852,-6.84174 8.9179,-9.70922 13.2311,-18.51289 8.92766,-18.22221 8.22885,5.82279 7.91713,-272.41719 l -0.2756,-246 -2.36479,-7 C 655.3848,78.597986 638.27001,62.270927 613.2315,55.939219 606.22938,54.168531 602.54219,53.995152 576.96841,54.234056 L 548.5,54.5 548,80.5 c -0.55613,28.91895 -0.84155,30.27488 -7.84734,37.28068 -6.79852,6.79852 -10.38008,7.67822 -30.376,7.46099 -12.54602,-0.1363 -18.70175,-0.60136 -21.07272,-1.59201 -4.74848,-1.98404 -10.45035,-7.2662 -13.01285,-12.05498 -2.05938,-3.84853 -2.20685,-5.56746 -2.4532,-28.59468 -0.14416,-13.475 -0.49067,-25.514236 -0.77002,-26.753858 L 471.95996,53.992283 346.22998,54.246142 220.5,54.5 220,80 l -0.5,25.5 -2.85917,5.82281 c -3.04399,6.19919 -7.94909,10.56391 -14.46978,12.87569 -5.78085,2.04949 -36.55709,1.72945 -41.42066,-0.43072 -6.12232,-2.71925 -10.24837,-6.43525 -13.3391,-12.01345 L 144.5,106.5 l -0.5,-26 -0.5,-26 -31,0.0231 -31,0.0231 -8.130524,2.732662 C 53.95421,63.80432 38.09098,78.820434 30.339616,98.010877 24.734943,111.88665 25,98.775856 25,362.13013 25,632.80081 24.476298,612.66966 31.929489,628.5 42.145558,650.1986 60.147354,664.17033 83.5,668.5254 c 5.65879,1.05532 56.62475,1.27375 266,1.14002 L 608.5,669.5 Z" />
  <path
     style="display:none;fill:#a9c8bd;fill-opacity:1"
     d="M 83.250674,643.45486 C 70.794649,640.10074 60.206424,631.24324 54.252564,619.1967 L 50.5,611.60408 50.240186,414.30204 49.980372,217 H 346.00241 642.02444 l -0.26222,197.27124 -0.26222,197.27125 -3.39138,6.88865 c -6.12267,12.43651 -18.54519,22.58621 -31.2204,25.50832 -2.90093,0.66877 -91.49273,0.99763 -261.38822,0.97028 -218.22004,-0.0351 -257.792096,-0.25466 -262.249326,-1.45488 z"
     id="path4579"
     inkscape:label="内側(primary)" />
  <path
     style="display:inline;fill:#ebf0ee;fill-opacity:1"
     d="M 83.250674,643.45486 C 70.794649,640.10074 60.206424,631.24324 54.252564,619.1967 L 50.5,611.60408 50.240186,414.30204 49.980372,217 H 346.00241 642.02444 l -0.26222,197.27124 -0.26222,197.27125 -3.39138,6.88865 c -6.12267,12.43651 -18.54519,22.58621 -31.2204,25.50832 -2.90093,0.66877 -91.49273,0.99763 -261.38822,0.97028 -218.22004,-0.0351 -257.792096,-0.25466 -262.249326,-1.45488 z"
     id="path4580"
     inkscape:label="内側(header)" />
  <path
     id="path4575"
     style="display:inline;fill:#000000"
     d="m 476.47956,604.03093 c 10.64981,-5.30033 21.30959,-15.03937 24.59797,-22.47329 3.98582,-9.0106 3.46876,-21.66376 -1.2869,-31.4923 -1.21494,-2.51094 -5.93986,-8.43629 -10.49981,-13.16745 C 484.73087,532.16673 481,527.96078 481,527.55134 c 0,-0.40944 1.7709,-2.75629 3.93533,-5.21521 5.47298,-6.21763 5.98482,-9.37268 2.41102,-14.86193 -1.56549,-2.40456 -12.09633,-15.08243 -23.40186,-28.17306 C 452.63896,466.21051 434.66123,445.15 423.99399,432.5 385.71291,387.1035 370.85057,370 369.68369,370 367.72314,370 306,431.5641 306,433.5196 c 0,0.9837 1.90814,3.40671 4.24031,5.38447 2.33216,1.97776 12.11966,10.59031 21.75,19.139 53.26753,47.28472 74.23524,65.93943 89.83455,79.92468 9.52868,8.54274 18.30368,16.0788 19.5,16.74681 5.47683,3.05818 13.01043,0.46784 18.11918,-6.23008 1.46176,-1.91647 3.26814,-3.48448 4.01418,-3.48448 2.05141,0 10.58309,9.9146 12.78961,14.86269 3.64717,8.17878 -0.53595,18.69284 -9.19459,23.11015 -3.88098,1.97993 -5.62958,2.02716 -75.04552,2.02716 -76.03701,0 -75.02234,-0.0634 -79.50772,4.96697 -1.46528,1.64332 -2,3.65734 -2,7.53303 0,5.55823 1.86587,8.84548 6,10.57067 1.1,0.45903 35.525,0.74342 76.5,0.63197 L 467.5,608.5 Z M 324.79099,392.04874 c 17.65821,-17.27985 33.09796,-32.75983 34.31054,-34.39994 4.48701,-6.069 4.98225,-32.30193 0.909,-48.1488 -6.31519,-24.56902 -23.87844,-45.68468 -47.3571,-56.93571 -14.38583,-6.89372 -20.30073,-8.07354 -40.15343,-8.00919 -15.87573,0.0515 -17.56214,0.2411 -25.5,2.8675 -33.15116,10.9687 -55.36637,35.44711 -62.22786,68.56737 -3.58009,17.281 -1.35061,38.40844 5.74653,54.45633 11.33943,25.64047 37.23187,46.79451 62.98133,51.45553 9.997,1.8096 11.50284,1.91169 25.59257,1.73515 l 13.59258,-0.17032 z"
     inkscape:label="マイク" />
</svg>
